<?xml version="1.0" encoding="UTF-8" standalone="no"?>
<svg
   xmlns:dc="http://purl.org/dc/elements/1.1/"
   xmlns:cc="http://creativecommons.org/ns#"
   xmlns:rdf="http://www.w3.org/1999/02/22-rdf-syntax-ns#"
   xmlns:svg="http://www.w3.org/2000/svg"
   xmlns="http://www.w3.org/2000/svg"
   xmlns:sodipodi="http://sodipodi.sourceforge.net/DTD/sodipodi-0.dtd"
   xmlns:inkscape="http://www.inkscape.org/namespaces/inkscape"
   width="55"
   height="82"
   id="svg3037"
   version="1.1"
   inkscape:version="0.48.3.1 r9886"
   sodipodi:docname="interrogacion6.svg">
  <metadata
     id="metadata3049">
    <rdf:RDF>
      <cc:Work
         rdf:about="">
        <dc:format>image/svg+xml</dc:format>
        <dc:type
           rdf:resource="http://purl.org/dc/dcmitype/StillImage" />
        <dc:title></dc:title>
      </cc:Work>
    </rdf:RDF>
  </metadata>
  <defs
     id="defs3047" />
  <sodipodi:namedview
     pagecolor="#ffffff"
     bordercolor="#666666"
     borderopacity="1"
     objecttolerance="10"
     gridtolerance="10000"
     guidetolerance="10"
     inkscape:pageopacity="0"
     inkscape:pageshadow="2"
     inkscape:window-width="1920"
     inkscape:window-height="1049"
     id="namedview3045"
     showgrid="true"
     inkscape:snap-global="true"
     fit-margin-top="0"
     fit-margin-left="0"
     fit-margin-right="0"
     fit-margin-bottom="0"
     showguides="true"
     inkscape:snap-grids="true"
     inkscape:object-nodes="true"
     inkscape:snap-object-midpoints="true"
     inkscape:snap-bbox="true"
     inkscape:snap-to-guides="true"
     inkscape:guide-bbox="true"
     inkscape:bbox-nodes="true"
     inkscape:object-paths="true"
     inkscape:snap-intersection-paths="true"
     inkscape:bbox-paths="true"
     inkscape:snap-smooth-nodes="true"
     inkscape:snap-midpoints="true"
     inkscape:snap-bbox-edge-midpoints="true"
     inkscape:snap-bbox-midpoints="true"
     inkscape:zoom="11.238095"
     inkscape:cx="42.082627"
     inkscape:cy="35.669408"
     inkscape:window-x="0"
     inkscape:window-y="1"
     inkscape:window-maximized="1"
     inkscape:current-layer="g3039">
    <inkscape:grid
       type="xygrid"
       id="grid3075"
       empspacing="5"
       visible="true"
       enabled="true"
       snapvisiblegridlinesonly="false"
       dotted="false" />
    <sodipodi:guide
       position="0,0"
       orientation="0,55"
       id="guide3080" />
    <sodipodi:guide
       position="55,0"
       orientation="-82,0"
       id="guide3082" />
    <sodipodi:guide
       position="55,82"
       orientation="0,-55"
       id="guide3084" />
    <sodipodi:guide
       position="0,82"
       orientation="82,0"
       id="guide3086" />
    <sodipodi:guide
       orientation="1,0"
       position="3,44"
       id="guide4781" />
  </sodipodi:namedview>
  <g
     display="inline"
     id="g3039"
     style="fill:#ff0000;display:inline"
     transform="matrix(2,0,0,2,-2.6,0.01999817)">
    <circle
       cx="13.2"
       cy="36.990002"
       r="4"
       id="circle3041"
       sodipodi:cx="13.2"
       sodipodi:cy="36.990002"
       sodipodi:rx="4"
       sodipodi:ry="4"
       d="m 17.2,36.990002 c 0,2.209139 -1.790861,4 -4,4 -2.209139,0 -4.0000002,-1.790861 -4.0000002,-4 0,-2.209139 1.7908612,-4 4.0000002,-4 2.209139,0 4,1.790861 4,4 z"
       transform="translate(1.3,-0.5)" />
    <path
       d="m 15.3,0.49000092 c 7,0 12.5,4.89999998 12.5,11.50000008 0,2.4 -2.4,6.4 -5.5,8 -3.2,1.6 -4.16168,3.405032 -4,6 l 0,3.5 -8,0 0,-2.5 c 0,-5.4 5,-8.9 6.5,-10.5 3.2,-3.2 3.5,-3.3 3.5,-4.5 0,-2.6000001 -2.3,-5.1000001 -5,-5.0000001 -2.6,0 -5,2.3 -5,5.0000001 l 0,2 -7.5,0 0,-1.5 C 2.8,5.8900009 8.3,0.49000092 15.3,0.49000092 z"
       id="path3043"
       inkscape:connector-curvature="0"
       sodipodi:nodetypes="cscsccscscsccsc" />
  </g>
</svg>
