<svg width="40" height="40" viewBox="0 0 40 40"
  <path d="m 11.875,32.083298 c 2.1862,0 3.9584,1.7722 3.9584,3.9584 0,2.1861 -1.7722,3.9583 -3.9584,3.9583 -2.1860997,0 -3.9583,-1.7722 -3.9583,-3.9583 0,-2.1862 1.7722003,-3.9584 3.9583,-3.9584 z M 12.6667,0.41669847 c 6.9956,0 12.6666,4.52490003 12.6666,11.08329953 0,2.375 -1.5833,6.3333 -4.7499,7.9167 -3.1667,1.5833 -4.75,3.71 -4.75,6.3333 l 0,3.1667 -7.9167,0 0,-2.375 c 0,-5.3846 4.75,-8.7084 6.3333,-10.2917 3.1667,-3.1667 3.1667,-3.606 3.1667,-4.75 0,-2.6232995 -2.1267,-4.7499995 -4.75,-4.7499995 -2.6234,0 -4.75,2.1267 -4.75,4.7499995 l 0,2.375 -7.9167,0 0,-1.5833 C 0,5.7332985 5.6711,0.41669847 12.6667,0.41669847 z" />
</svg>
