<svg width="28" height="42" xmlns="http://www.w3.org/2000/svg" xmlns:svg="http://www.w3.org/2000/svg">
 <metadata id="metadata9">image/svg+xml</metadata>
 <defs>
  <marker refY="50" refX="50" markerHeight="5" markerWidth="5" viewBox="0 0 100 100" orient="auto" markerUnits="strokeWidth" id="se_marker_mid_path3">
   <circle stroke-width="10" fill="none" cy="50" cx="50" r="30" id="svg_1"/>
  </marker>
  <marker refY="50" refX="50" markerHeight="5" markerWidth="5" viewBox="0 0 100 100" orient="auto" markerUnits="strokeWidth" id="se_marker_start_path3">
   <path stroke-width="10" fill="none" d="m20,20l0,60l60,0l0,-60l-60,0z" id="svg_2"/>
  </marker>
  <marker refY="50" refX="50" markerHeight="5" markerWidth="5" viewBox="0 0 100 100" orient="auto" markerUnits="strokeWidth" id="se_marker_end_path3">
   <path stroke-width="10" fill="none" d="m10,80l40,-60l30,60l-70,0z" id="svg_3"/>
  </marker>
 </defs>
 <g>
  <title>Layer 1</title>fill=&quot;black&quot;
  <path id="path3" d="m13.20898,32.87627c2.1862,0 3.9584,1.772202 3.9584,3.958401c0,2.1861 -1.7722,3.958298 -3.9584,3.958298c-2.1861,0 -3.958301,-1.772198 -3.958301,-3.958298c0,-2.186199 1.7722,-3.958401 3.958301,-3.958401zm0.7917,-31.666599c6.995601,0 12.6666,4.5249 12.6666,11.0833c0,2.375 -1.5833,6.333302 -4.749901,7.916698c-3.166698,1.583303 -4.75,3.710001 -4.75,6.333303l0,3.166697l-7.916699,0l0,-2.375c0,-5.3846 4.75,-8.708399 6.3333,-10.291698c3.166701,-3.166699 3.166701,-3.606001 3.166701,-4.750001c0,-2.6233 -2.126701,-4.75 -4.750001,-4.75c-2.6234,0 -4.75,2.1267 -4.75,4.75l0,2.375l-7.9167,0l0,-1.5833c0,-6.5584 5.671101,-11.875 12.666701,-11.875l-0.000001,0.000001z" fill="#000000" fill-opacity="0" stroke="#00ffff" marker-mid="url(#se_marker_mid_path3)" marker-start="url(#se_marker_start_path3)" marker-end="url(#se_marker_end_path3)"/></g>
</svg>
